<svg width="480" height="500" viewBox="0 0 480 500" fill="none" xmlns="http://www.w3.org/2000/svg">
<g clip-path="url(#clip0_5_1223)">
<path d="M480 0H0V500H480V0Z" fill="#171717"/>
<path d="M95.642 68L93.2557 59.2727H94.3295L96.1534 66.3807H96.2386L98.0966 59.2727H99.2898L101.148 66.3807H101.233L103.057 59.2727H104.131L101.744 68H100.653L98.7273 61.0455H98.6591L96.733 68H95.642ZM104.901 68V61.4545H105.873V62.4432H105.941C106.06 62.1193 106.276 61.8565 106.588 61.6548C106.901 61.4531 107.253 61.3523 107.645 61.3523C107.719 61.3523 107.811 61.3537 107.922 61.3565C108.033 61.3594 108.117 61.3636 108.174 61.3693V62.392C108.14 62.3835 108.061 62.3707 107.939 62.3537C107.82 62.3338 107.694 62.3239 107.56 62.3239C107.242 62.3239 106.958 62.3906 106.708 62.5241C106.461 62.6548 106.265 62.8366 106.12 63.0696C105.978 63.2997 105.907 63.5625 105.907 63.858V68H104.901ZM111.826 68.1364C111.235 68.1364 110.716 67.9957 110.27 67.7145C109.827 67.4332 109.48 67.0398 109.23 66.5341C108.983 66.0284 108.86 65.4375 108.86 64.7614C108.86 64.0795 108.983 63.4844 109.23 62.9759C109.48 62.4673 109.827 62.0724 110.27 61.7912C110.716 61.5099 111.235 61.3693 111.826 61.3693C112.417 61.3693 112.934 61.5099 113.377 61.7912C113.823 62.0724 114.169 62.4673 114.417 62.9759C114.667 63.4844 114.792 64.0795 114.792 64.7614C114.792 65.4375 114.667 66.0284 114.417 66.5341C114.169 67.0398 113.823 67.4332 113.377 67.7145C112.934 67.9957 112.417 68.1364 111.826 68.1364ZM111.826 67.233C112.275 67.233 112.644 67.1179 112.934 66.8878C113.223 66.6577 113.438 66.3551 113.577 65.9801C113.716 65.6051 113.786 65.1989 113.786 64.7614C113.786 64.3239 113.716 63.9162 113.577 63.5384C113.438 63.1605 113.223 62.8551 112.934 62.6222C112.644 62.3892 112.275 62.2727 111.826 62.2727C111.377 62.2727 111.007 62.3892 110.718 62.6222C110.428 62.8551 110.213 63.1605 110.074 63.5384C109.935 63.9162 109.865 64.3239 109.865 64.7614C109.865 65.1989 109.935 65.6051 110.074 65.9801C110.213 66.3551 110.428 66.6577 110.718 66.8878C111.007 67.1179 111.377 67.233 111.826 67.233ZM117.332 64.0625V68H116.327V61.4545H117.298V62.4773H117.384C117.537 62.1449 117.77 61.8778 118.082 61.6761C118.395 61.4716 118.798 61.3693 119.293 61.3693C119.736 61.3693 120.124 61.4602 120.456 61.642C120.788 61.821 121.047 62.0938 121.232 62.4602C121.416 62.8239 121.509 63.2841 121.509 63.8409V68H120.503V63.9091C120.503 63.3949 120.369 62.9943 120.102 62.7074C119.835 62.4176 119.469 62.2727 119.003 62.2727C118.682 62.2727 118.395 62.3423 118.142 62.4815C117.892 62.6207 117.695 62.8239 117.55 63.0909C117.405 63.358 117.332 63.6818 117.332 64.0625ZM125.988 70.5909C125.502 70.5909 125.085 70.5284 124.735 70.4034C124.386 70.2812 124.095 70.1193 123.862 69.9176C123.632 69.7188 123.449 69.5057 123.312 69.2784L124.113 68.7159C124.204 68.8352 124.319 68.9716 124.458 69.125C124.598 69.2812 124.788 69.4162 125.029 69.5298C125.274 69.6463 125.593 69.7045 125.988 69.7045C126.517 69.7045 126.953 69.5767 127.297 69.321C127.64 69.0653 127.812 68.6648 127.812 68.1193V66.7898H127.727C127.653 66.9091 127.548 67.0568 127.412 67.233C127.278 67.4062 127.085 67.5611 126.832 67.6974C126.582 67.831 126.244 67.8977 125.818 67.8977C125.289 67.8977 124.815 67.7727 124.395 67.5227C123.977 67.2727 123.646 66.9091 123.402 66.4318C123.16 65.9545 123.039 65.375 123.039 64.6932C123.039 64.0227 123.157 63.4389 123.393 62.9418C123.629 62.4418 123.957 62.0554 124.377 61.7827C124.798 61.5071 125.284 61.3693 125.835 61.3693C126.261 61.3693 126.599 61.4403 126.849 61.5824C127.102 61.7216 127.295 61.8807 127.429 62.0597C127.565 62.2358 127.67 62.3807 127.744 62.4943H127.846V61.4545H128.818V68.1875C128.818 68.75 128.69 69.2074 128.434 69.5597C128.181 69.9148 127.841 70.1747 127.412 70.3395C126.985 70.5071 126.511 70.5909 125.988 70.5909ZM125.954 66.9943C126.358 66.9943 126.699 66.902 126.977 66.7173C127.255 66.5327 127.467 66.267 127.612 65.9205C127.757 65.5739 127.829 65.1591 127.829 64.6761C127.829 64.2045 127.758 63.7884 127.616 63.4276C127.474 63.0668 127.264 62.7841 126.985 62.5795C126.707 62.375 126.363 62.2727 125.954 62.2727C125.528 62.2727 125.173 62.3807 124.889 62.5966C124.608 62.8125 124.396 63.1023 124.254 63.4659C124.115 63.8295 124.045 64.233 124.045 64.6761C124.045 65.1307 124.116 65.5327 124.258 65.8821C124.403 66.2287 124.616 66.5014 124.897 66.7003C125.181 66.8963 125.534 66.9943 125.954 66.9943ZM134.971 65.6136L134.954 64.3693H135.159L138.022 61.4545H139.267L136.216 64.5398H136.13L134.971 65.6136ZM134.034 68V59.2727H135.039V68H134.034ZM138.193 68L135.636 64.7614L136.352 64.0625L139.471 68H138.193ZM143.036 68.1364C142.405 68.1364 141.861 67.9972 141.404 67.7188C140.949 67.4375 140.598 67.0455 140.351 66.5426C140.107 66.0369 139.985 65.4489 139.985 64.7784C139.985 64.108 140.107 63.517 140.351 63.0057C140.598 62.4915 140.942 62.0909 141.382 61.804C141.826 61.5142 142.343 61.3693 142.934 61.3693C143.275 61.3693 143.611 61.4261 143.944 61.5398C144.276 61.6534 144.578 61.8381 144.851 62.0938C145.124 62.3466 145.341 62.6818 145.503 63.0994C145.665 63.517 145.746 64.0312 145.746 64.642V65.0682H140.701V64.1989H144.723C144.723 63.8295 144.65 63.5 144.502 63.2102C144.357 62.9205 144.15 62.6918 143.88 62.5241C143.613 62.3565 143.297 62.2727 142.934 62.2727C142.533 62.2727 142.186 62.3722 141.894 62.571C141.604 62.767 141.381 63.0227 141.225 63.3381C141.069 63.6534 140.99 63.9915 140.99 64.3523V64.9318C140.99 65.4261 141.076 65.8452 141.246 66.1889C141.419 66.5298 141.659 66.7898 141.966 66.9688C142.273 67.1449 142.63 67.233 143.036 67.233C143.3 67.233 143.539 67.196 143.752 67.1222C143.968 67.0455 144.154 66.9318 144.31 66.7812C144.466 66.6278 144.587 66.4375 144.672 66.2102L145.644 66.483C145.542 66.8125 145.37 67.1023 145.128 67.3523C144.887 67.5994 144.588 67.7926 144.233 67.9318C143.878 68.0682 143.479 68.1364 143.036 68.1364ZM147.724 70.4545C147.554 70.4545 147.402 70.4403 147.268 70.4119C147.135 70.3864 147.043 70.3608 146.991 70.3352L147.247 69.4489C147.491 69.5114 147.707 69.5341 147.895 69.517C148.082 69.5 148.249 69.4162 148.393 69.2656C148.541 69.1179 148.676 68.8778 148.798 68.5455L148.986 68.0341L146.565 61.4545H147.656L149.463 66.6705H149.531L151.338 61.4545H152.429L149.651 68.9545C149.526 69.2926 149.371 69.5724 149.186 69.794C149.001 70.0185 148.787 70.1847 148.543 70.2926C148.301 70.4006 148.028 70.4545 147.724 70.4545ZM158.393 62.9205L157.489 63.1761C157.433 63.0256 157.349 62.8793 157.238 62.7372C157.13 62.5923 156.982 62.473 156.795 62.3793C156.607 62.2855 156.367 62.2386 156.075 62.2386C155.674 62.2386 155.34 62.331 155.073 62.5156C154.809 62.6974 154.677 62.929 154.677 63.2102C154.677 63.4602 154.768 63.6577 154.95 63.8026C155.131 63.9474 155.415 64.0682 155.802 64.1648L156.773 64.4034C157.359 64.5455 157.795 64.7628 158.082 65.0554C158.369 65.3452 158.512 65.7187 158.512 66.1761C158.512 66.5511 158.404 66.8864 158.188 67.1818C157.975 67.4773 157.677 67.7102 157.293 67.8807C156.91 68.0511 156.464 68.1364 155.955 68.1364C155.288 68.1364 154.735 67.9915 154.298 67.7017C153.86 67.4119 153.583 66.9886 153.467 66.4318L154.421 66.1932C154.512 66.5455 154.684 66.8097 154.937 66.9858C155.192 67.1619 155.526 67.25 155.938 67.25C156.407 67.25 156.779 67.1506 157.055 66.9517C157.333 66.75 157.472 66.5085 157.472 66.2273C157.472 66 157.393 65.8097 157.234 65.6562C157.075 65.5 156.83 65.3835 156.501 65.3068L155.41 65.0511C154.81 64.9091 154.37 64.6889 154.089 64.3906C153.81 64.0895 153.671 63.7131 153.671 63.2614C153.671 62.892 153.775 62.5653 153.982 62.2812C154.192 61.9972 154.478 61.7741 154.839 61.6122C155.202 61.4503 155.614 61.3693 156.075 61.3693C156.722 61.3693 157.231 61.5114 157.6 61.7955C157.972 62.0795 158.237 62.4545 158.393 62.9205ZM160.759 68.0682C160.549 68.0682 160.368 67.9929 160.218 67.8423C160.067 67.6918 159.992 67.5114 159.992 67.3011C159.992 67.0909 160.067 66.9105 160.218 66.7599C160.368 66.6094 160.549 66.5341 160.759 66.5341C160.969 66.5341 161.15 66.6094 161.3 66.7599C161.451 66.9105 161.526 67.0909 161.526 67.3011C161.526 67.4403 161.49 67.5682 161.419 67.6847C161.351 67.8011 161.259 67.8949 161.142 67.9659C161.029 68.0341 160.901 68.0682 160.759 68.0682ZM166.365 60.2102V59.2727H172.91V60.2102H170.166V68H169.109V60.2102H166.365ZM173.725 68V61.4545H174.697V62.4432H174.765C174.884 62.1193 175.1 61.8565 175.413 61.6548C175.725 61.4531 176.077 61.3523 176.469 61.3523C176.543 61.3523 176.636 61.3537 176.746 61.3565C176.857 61.3594 176.941 61.3636 176.998 61.3693V62.392C176.964 62.3835 176.886 62.3707 176.763 62.3537C176.644 62.3338 176.518 62.3239 176.384 62.3239C176.066 62.3239 175.782 62.3906 175.532 62.5241C175.285 62.6548 175.089 62.8366 174.944 63.0696C174.802 63.2997 174.731 63.5625 174.731 63.858V68H173.725ZM179.037 70.4545C178.866 70.4545 178.714 70.4403 178.581 70.4119C178.447 70.3864 178.355 70.3608 178.304 70.3352L178.56 69.4489C178.804 69.5114 179.02 69.5341 179.207 69.517C179.395 69.5 179.561 69.4162 179.706 69.2656C179.854 69.1179 179.989 68.8778 180.111 68.5455L180.298 68.0341L177.878 61.4545H178.969L180.776 66.6705H180.844L182.651 61.4545H183.741L180.963 68.9545C180.838 69.2926 180.683 69.5724 180.499 69.794C180.314 70.0185 180.099 70.1847 179.855 70.2926C179.614 70.4006 179.341 70.4545 179.037 70.4545ZM190.915 68.1364C190.37 68.1364 189.888 67.9986 189.471 67.723C189.053 67.4446 188.727 67.0526 188.491 66.5469C188.255 66.0384 188.137 65.4375 188.137 64.7443C188.137 64.0568 188.255 63.4602 188.491 62.9545C188.727 62.4489 189.055 62.0582 189.475 61.7827C189.896 61.5071 190.381 61.3693 190.933 61.3693C191.359 61.3693 191.695 61.4403 191.942 61.5824C192.192 61.7216 192.383 61.8807 192.513 62.0597C192.647 62.2358 192.751 62.3807 192.825 62.4943H192.91V59.2727H193.915V68H192.944V66.9943H192.825C192.751 67.1136 192.646 67.2642 192.509 67.446C192.373 67.625 192.178 67.7855 191.925 67.9276C191.673 68.0668 191.336 68.1364 190.915 68.1364ZM191.052 67.233C191.455 67.233 191.796 67.1278 192.075 66.9176C192.353 66.7045 192.565 66.4105 192.71 66.0355C192.854 65.6577 192.927 65.2216 192.927 64.7273C192.927 64.2386 192.856 63.8111 192.714 63.4446C192.572 63.0753 192.362 62.7884 192.083 62.5838C191.805 62.3764 191.461 62.2727 191.052 62.2727C190.626 62.2727 190.271 62.3821 189.987 62.6009C189.705 62.8168 189.494 63.1108 189.352 63.483C189.212 63.8523 189.143 64.267 189.143 64.7273C189.143 65.1932 189.214 65.6165 189.356 65.9972C189.501 66.375 189.714 66.6761 189.995 66.9006C190.279 67.1222 190.631 67.233 191.052 67.233ZM195.897 68V61.4545H196.903V68H195.897ZM196.408 60.3636C196.212 60.3636 196.043 60.2969 195.901 60.1634C195.762 60.0298 195.692 59.8693 195.692 59.6818C195.692 59.4943 195.762 59.3338 195.901 59.2003C196.043 59.0668 196.212 59 196.408 59C196.604 59 196.772 59.0668 196.911 59.2003C197.053 59.3338 197.124 59.4943 197.124 59.6818C197.124 59.8693 197.053 60.0298 196.911 60.1634C196.772 60.2969 196.604 60.3636 196.408 60.3636ZM201.659 61.4545V62.3068H198.131V61.4545H201.659ZM199.188 68V60.5511C199.188 60.1761 199.276 59.8636 199.452 59.6136C199.628 59.3636 199.857 59.1761 200.138 59.0511C200.419 58.9261 200.716 58.8636 201.029 58.8636C201.276 58.8636 201.478 58.8835 201.634 58.9233C201.79 58.9631 201.907 59 201.983 59.0341L201.694 59.9034C201.642 59.8864 201.571 59.8651 201.48 59.8395C201.392 59.8139 201.276 59.8011 201.131 59.8011C200.799 59.8011 200.559 59.8849 200.411 60.0526C200.266 60.2202 200.194 60.4659 200.194 60.7898V68H199.188ZM205.984 61.4545V62.3068H202.455V61.4545H205.984ZM203.512 68V60.5511C203.512 60.1761 203.6 59.8636 203.776 59.6136C203.952 59.3636 204.181 59.1761 204.462 59.0511C204.744 58.9261 205.04 58.8636 205.353 58.8636C205.6 58.8636 205.802 58.8835 205.958 58.9233C206.114 58.9631 206.231 59 206.308 59.0341L206.018 59.9034C205.967 59.8864 205.896 59.8651 205.805 59.8395C205.717 59.8139 205.6 59.8011 205.455 59.8011C205.123 59.8011 204.883 59.8849 204.735 60.0526C204.59 60.2202 204.518 60.4659 204.518 60.7898V68H203.512ZM209.868 68.1364C209.237 68.1364 208.693 67.9972 208.236 67.7188C207.781 67.4375 207.43 67.0455 207.183 66.5426C206.939 66.0369 206.817 65.4489 206.817 64.7784C206.817 64.108 206.939 63.517 207.183 63.0057C207.43 62.4915 207.774 62.0909 208.214 61.804C208.658 61.5142 209.175 61.3693 209.766 61.3693C210.107 61.3693 210.443 61.4261 210.776 61.5398C211.108 61.6534 211.411 61.8381 211.683 62.0938C211.956 62.3466 212.173 62.6818 212.335 63.0994C212.497 63.517 212.578 64.0312 212.578 64.642V65.0682H207.533V64.1989H211.555C211.555 63.8295 211.482 63.5 211.334 63.2102C211.189 62.9205 210.982 62.6918 210.712 62.5241C210.445 62.3565 210.129 62.2727 209.766 62.2727C209.365 62.2727 209.018 62.3722 208.726 62.571C208.436 62.767 208.213 63.0227 208.057 63.3381C207.901 63.6534 207.822 63.9915 207.822 64.3523V64.9318C207.822 65.4261 207.908 65.8452 208.078 66.1889C208.251 66.5298 208.491 66.7898 208.798 66.9688C209.105 67.1449 209.462 67.233 209.868 67.233C210.132 67.233 210.371 67.196 210.584 67.1222C210.8 67.0455 210.986 66.9318 211.142 66.7812C211.298 66.6278 211.419 66.4375 211.504 66.2102L212.476 66.483C212.374 66.8125 212.202 67.1023 211.96 67.3523C211.719 67.5994 211.42 67.7926 211.065 67.9318C210.71 68.0682 210.311 68.1364 209.868 68.1364ZM214.108 68V61.4545H215.08V62.4432H215.148C215.267 62.1193 215.483 61.8565 215.795 61.6548C216.108 61.4531 216.46 61.3523 216.852 61.3523C216.926 61.3523 217.018 61.3537 217.129 61.3565C217.24 61.3594 217.324 61.3636 217.381 61.3693V62.392C217.347 62.3835 217.268 62.3707 217.146 62.3537C217.027 62.3338 216.901 62.3239 216.767 62.3239C216.449 62.3239 216.165 62.3906 215.915 62.5241C215.668 62.6548 215.472 62.8366 215.327 63.0696C215.185 63.2997 215.114 63.5625 215.114 63.858V68H214.108ZM221.118 68.1364C220.487 68.1364 219.943 67.9972 219.486 67.7188C219.031 67.4375 218.68 67.0455 218.433 66.5426C218.189 66.0369 218.067 65.4489 218.067 64.7784C218.067 64.108 218.189 63.517 218.433 63.0057C218.68 62.4915 219.024 62.0909 219.464 61.804C219.908 61.5142 220.425 61.3693 221.016 61.3693C221.357 61.3693 221.693 61.4261 222.026 61.5398C222.358 61.6534 222.661 61.8381 222.933 62.0938C223.206 62.3466 223.423 62.6818 223.585 63.0994C223.747 63.517 223.828 64.0312 223.828 64.642V65.0682H218.783V64.1989H222.805C222.805 63.8295 222.732 63.5 222.584 63.2102C222.439 62.9205 222.232 62.6918 221.962 62.5241C221.695 62.3565 221.379 62.2727 221.016 62.2727C220.615 62.2727 220.268 62.3722 219.976 62.571C219.686 62.767 219.463 63.0227 219.307 63.3381C219.151 63.6534 219.072 63.9915 219.072 64.3523V64.9318C219.072 65.4261 219.158 65.8452 219.328 66.1889C219.501 66.5298 219.741 66.7898 220.048 66.9688C220.355 67.1449 220.712 67.233 221.118 67.233C221.382 67.233 221.621 67.196 221.834 67.1222C222.05 67.0455 222.236 66.9318 222.392 66.7812C222.548 66.6278 222.669 66.4375 222.754 66.2102L223.726 66.483C223.624 66.8125 223.452 67.1023 223.21 67.3523C222.969 67.5994 222.67 67.7926 222.315 67.9318C221.96 68.0682 221.561 68.1364 221.118 68.1364ZM226.364 64.0625V68H225.358V61.4545H226.33V62.4773H226.415C226.568 62.1449 226.801 61.8778 227.114 61.6761C227.426 61.4716 227.83 61.3693 228.324 61.3693C228.767 61.3693 229.155 61.4602 229.487 61.642C229.82 61.821 230.078 62.0938 230.263 62.4602C230.447 62.8239 230.54 63.2841 230.54 63.8409V68H229.534V63.9091C229.534 63.3949 229.401 62.9943 229.134 62.7074C228.866 62.4176 228.5 62.2727 228.034 62.2727C227.713 62.2727 227.426 62.3423 227.173 62.4815C226.923 62.6207 226.726 62.8239 226.581 63.0909C226.436 63.358 226.364 63.6818 226.364 64.0625ZM235.224 61.4545V62.3068H231.832V61.4545H235.224ZM232.821 59.8864H233.826V66.125C233.826 66.4091 233.868 66.6222 233.95 66.7642C234.035 66.9034 234.143 66.9972 234.274 67.0455C234.407 67.0909 234.548 67.1136 234.696 67.1136C234.806 67.1136 234.897 67.108 234.968 67.0966C235.039 67.0824 235.096 67.071 235.139 67.0625L235.343 67.9659C235.275 67.9915 235.18 68.017 235.058 68.0426C234.936 68.071 234.781 68.0852 234.593 68.0852C234.309 68.0852 234.031 68.0241 233.758 67.902C233.488 67.7798 233.264 67.5938 233.085 67.3438C232.909 67.0938 232.821 66.7784 232.821 66.3977V59.8864ZM240.248 68V59.2727H241.305V63.6023H241.407L245.328 59.2727H246.708L243.044 63.2102L246.708 68H245.43L242.396 63.9432L241.305 65.1705V68H240.248ZM250.204 68.1364C249.573 68.1364 249.029 67.9972 248.572 67.7188C248.117 67.4375 247.766 67.0455 247.519 66.5426C247.275 66.0369 247.153 65.4489 247.153 64.7784C247.153 64.108 247.275 63.517 247.519 63.0057C247.766 62.4915 248.11 62.0909 248.55 61.804C248.994 61.5142 249.511 61.3693 250.102 61.3693C250.442 61.3693 250.779 61.4261 251.112 61.5398C251.444 61.6534 251.746 61.8381 252.019 62.0938C252.292 62.3466 252.509 62.6818 252.671 63.0994C252.833 63.517 252.914 64.0312 252.914 64.642V65.0682H247.869V64.1989H251.891C251.891 63.8295 251.817 63.5 251.67 63.2102C251.525 62.9205 251.317 62.6918 251.048 62.5241C250.781 62.3565 250.465 62.2727 250.102 62.2727C249.701 62.2727 249.354 62.3722 249.062 62.571C248.772 62.767 248.549 63.0227 248.393 63.3381C248.237 63.6534 248.158 63.9915 248.158 64.3523V64.9318C248.158 65.4261 248.244 65.8452 248.414 66.1889C248.587 66.5298 248.827 66.7898 249.134 66.9688C249.441 67.1449 249.798 67.233 250.204 67.233C250.468 67.233 250.707 67.196 250.92 67.1222C251.136 67.0455 251.322 66.9318 251.478 66.7812C251.634 66.6278 251.755 66.4375 251.84 66.2102L252.812 66.483C252.71 66.8125 252.538 67.1023 252.296 67.3523C252.055 67.5994 251.756 67.7926 251.401 67.9318C251.046 68.0682 250.647 68.1364 250.204 68.1364ZM254.892 70.4545C254.722 70.4545 254.57 70.4403 254.436 70.4119C254.303 70.3864 254.211 70.3608 254.159 70.3352L254.415 69.4489C254.659 69.5114 254.875 69.5341 255.063 69.517C255.25 69.5 255.417 69.4162 255.561 69.2656C255.709 69.1179 255.844 68.8778 255.966 68.5455L256.154 68.0341L253.733 61.4545H254.824L256.631 66.6705H256.699L258.506 61.4545H259.597L256.819 68.9545C256.694 69.2926 256.539 69.5724 256.354 69.794C256.169 70.0185 255.955 70.1847 255.711 70.2926C255.469 70.4006 255.196 70.4545 254.892 70.4545ZM263.349 68.1364C262.735 68.1364 262.207 67.9915 261.764 67.7017C261.321 67.4119 260.98 67.0128 260.741 66.5043C260.502 65.9957 260.383 65.4148 260.383 64.7614C260.383 64.0966 260.505 63.5099 260.75 63.0014C260.997 62.4901 261.341 62.0909 261.781 61.804C262.224 61.5142 262.741 61.3693 263.332 61.3693C263.792 61.3693 264.207 61.4545 264.576 61.625C264.946 61.7955 265.248 62.0341 265.484 62.3409C265.72 62.6477 265.866 63.0057 265.923 63.4148H264.917C264.841 63.1165 264.67 62.8523 264.406 62.6222C264.145 62.3892 263.792 62.2727 263.349 62.2727C262.957 62.2727 262.613 62.375 262.318 62.5795C262.025 62.7812 261.797 63.0668 261.632 63.4361C261.47 63.8026 261.389 64.233 261.389 64.7273C261.389 65.233 261.468 65.6733 261.627 66.0483C261.789 66.4233 262.017 66.7145 262.309 66.9219C262.605 67.1293 262.951 67.233 263.349 67.233C263.61 67.233 263.848 67.1875 264.061 67.0966C264.274 67.0057 264.454 66.875 264.602 66.7045C264.75 66.5341 264.855 66.3295 264.917 66.0909H265.923C265.866 66.4773 265.725 66.8253 265.501 67.1349C265.279 67.4418 264.985 67.6861 264.619 67.8679C264.255 68.0469 263.832 68.1364 263.349 68.1364ZM269.319 68.1534C268.904 68.1534 268.528 68.0753 268.19 67.919C267.852 67.7599 267.583 67.5312 267.385 67.233C267.186 66.9318 267.086 66.5682 267.086 66.142C267.086 65.767 267.16 65.4631 267.308 65.2301C267.456 64.9943 267.653 64.8097 267.9 64.6761C268.147 64.5426 268.42 64.4432 268.718 64.3778C269.02 64.3097 269.322 64.2557 269.626 64.2159C270.024 64.1648 270.346 64.1264 270.593 64.1009C270.843 64.0724 271.025 64.0256 271.139 63.9602C271.255 63.8949 271.314 63.7812 271.314 63.6193V63.5852C271.314 63.1648 271.199 62.8381 270.968 62.6051C270.741 62.3722 270.396 62.2557 269.933 62.2557C269.453 62.2557 269.076 62.3608 268.804 62.571C268.531 62.7812 268.339 63.0057 268.228 63.2443L267.274 62.9034C267.444 62.5057 267.672 62.196 267.956 61.9744C268.243 61.75 268.555 61.5937 268.893 61.5057C269.234 61.4148 269.569 61.3693 269.899 61.3693C270.109 61.3693 270.35 61.3949 270.623 61.446C270.899 61.4943 271.164 61.5952 271.42 61.7486C271.679 61.902 271.893 62.1335 272.064 62.4432C272.234 62.7528 272.319 63.1676 272.319 63.6875V68H271.314V67.1136H271.262C271.194 67.2557 271.081 67.4077 270.922 67.5696C270.762 67.7315 270.551 67.8693 270.287 67.983C270.022 68.0966 269.7 68.1534 269.319 68.1534ZM269.473 67.25C269.87 67.25 270.206 67.1719 270.478 67.0156C270.754 66.8594 270.961 66.6577 271.1 66.4105C271.243 66.1634 271.314 65.9034 271.314 65.6307V64.7102C271.271 64.7614 271.177 64.8082 271.032 64.8509C270.89 64.8906 270.725 64.9261 270.538 64.9574C270.353 64.9858 270.173 65.0114 269.997 65.0341C269.824 65.054 269.683 65.071 269.575 65.0852C269.314 65.1193 269.069 65.1747 268.842 65.2514C268.618 65.3253 268.436 65.4375 268.297 65.5881C268.16 65.7358 268.092 65.9375 268.092 66.1932C268.092 66.5426 268.221 66.8068 268.48 66.9858C268.741 67.1619 269.072 67.25 269.473 67.25ZM274.155 68V61.4545H275.126V62.4432H275.195C275.314 62.1193 275.53 61.8565 275.842 61.6548C276.155 61.4531 276.507 61.3523 276.899 61.3523C276.973 61.3523 277.065 61.3537 277.176 61.3565C277.287 61.3594 277.371 61.3636 277.428 61.3693V62.392C277.393 62.3835 277.315 62.3707 277.193 62.3537C277.074 62.3338 276.947 62.3239 276.814 62.3239C276.496 62.3239 276.212 62.3906 275.962 62.5241C275.714 62.6548 275.518 62.8366 275.374 63.0696C275.232 63.2997 275.161 63.5625 275.161 63.858V68H274.155ZM280.892 68.1364C280.347 68.1364 279.865 67.9986 279.447 67.723C279.03 67.4446 278.703 67.0526 278.467 66.5469C278.232 66.0384 278.114 65.4375 278.114 64.7443C278.114 64.0568 278.232 63.4602 278.467 62.9545C278.703 62.4489 279.031 62.0582 279.452 61.7827C279.872 61.5071 280.358 61.3693 280.909 61.3693C281.335 61.3693 281.672 61.4403 281.919 61.5824C282.169 61.7216 282.359 61.8807 282.49 62.0597C282.624 62.2358 282.727 62.3807 282.801 62.4943H282.886V59.2727H283.892V68H282.92V66.9943H282.801C282.727 67.1136 282.622 67.2642 282.486 67.446C282.349 67.625 282.155 67.7855 281.902 67.9276C281.649 68.0668 281.313 68.1364 280.892 68.1364ZM281.028 67.233C281.432 67.233 281.773 67.1278 282.051 66.9176C282.33 66.7045 282.541 66.4105 282.686 66.0355C282.831 65.6577 282.903 65.2216 282.903 64.7273C282.903 64.2386 282.832 63.8111 282.69 63.4446C282.548 63.0753 282.338 62.7884 282.06 62.5838C281.781 62.3764 281.438 62.2727 281.028 62.2727C280.602 62.2727 280.247 62.3821 279.963 62.6009C279.682 62.8168 279.47 63.1108 279.328 63.483C279.189 63.8523 279.119 64.267 279.119 64.7273C279.119 65.1932 279.19 65.6165 279.332 65.9972C279.477 66.375 279.69 66.6761 279.972 66.9006C280.256 67.1222 280.608 67.233 281.028 67.233ZM286.607 68.0682C286.396 68.0682 286.216 67.9929 286.065 67.8423C285.915 67.6918 285.839 67.5114 285.839 67.3011C285.839 67.0909 285.915 66.9105 286.065 66.7599C286.216 66.6094 286.396 66.5341 286.607 66.5341C286.817 66.5341 286.997 66.6094 287.148 66.7599C287.298 66.9105 287.374 67.0909 287.374 67.3011C287.374 67.4403 287.338 67.5682 287.267 67.6847C287.199 67.8011 287.107 67.8949 286.99 67.9659C286.876 68.0341 286.749 68.0682 286.607 68.0682Z" fill="#FB3748"/>
<path d="M95.642 115L93.2557 106.273H94.3295L96.1534 113.381H96.2386L98.0966 106.273H99.2898L101.148 113.381H101.233L103.057 106.273H104.131L101.744 115H100.653L98.7273 108.045H98.6591L96.733 115H95.642ZM104.901 115V108.455H105.873V109.443H105.941C106.06 109.119 106.276 108.857 106.588 108.655C106.901 108.453 107.253 108.352 107.645 108.352C107.719 108.352 107.811 108.354 107.922 108.357C108.033 108.359 108.117 108.364 108.174 108.369V109.392C108.14 109.384 108.061 109.371 107.939 109.354C107.82 109.334 107.694 109.324 107.56 109.324C107.242 109.324 106.958 109.391 106.708 109.524C106.461 109.655 106.265 109.837 106.12 110.07C105.978 110.3 105.907 110.562 105.907 110.858V115H104.901ZM111.826 115.136C111.235 115.136 110.716 114.996 110.27 114.714C109.827 114.433 109.48 114.04 109.23 113.534C108.983 113.028 108.86 112.437 108.86 111.761C108.86 111.08 108.983 110.484 109.23 109.976C109.48 109.467 109.827 109.072 110.27 108.791C110.716 108.51 111.235 108.369 111.826 108.369C112.417 108.369 112.934 108.51 113.377 108.791C113.823 109.072 114.169 109.467 114.417 109.976C114.667 110.484 114.792 111.08 114.792 111.761C114.792 112.437 114.667 113.028 114.417 113.534C114.169 114.04 113.823 114.433 113.377 114.714C112.934 114.996 112.417 115.136 111.826 115.136ZM111.826 114.233C112.275 114.233 112.644 114.118 112.934 113.888C113.223 113.658 113.438 113.355 113.577 112.98C113.716 112.605 113.786 112.199 113.786 111.761C113.786 111.324 113.716 110.916 113.577 110.538C113.438 110.161 113.223 109.855 112.934 109.622C112.644 109.389 112.275 109.273 111.826 109.273C111.377 109.273 111.007 109.389 110.718 109.622C110.428 109.855 110.213 110.161 110.074 110.538C109.935 110.916 109.865 111.324 109.865 111.761C109.865 112.199 109.935 112.605 110.074 112.98C110.213 113.355 110.428 113.658 110.718 113.888C111.007 114.118 111.377 114.233 111.826 114.233ZM117.332 111.062V115H116.327V108.455H117.298V109.477H117.384C117.537 109.145 117.77 108.878 118.082 108.676C118.395 108.472 118.798 108.369 119.293 108.369C119.736 108.369 120.124 108.46 120.456 108.642C120.788 108.821 121.047 109.094 121.232 109.46C121.416 109.824 121.509 110.284 121.509 110.841V115H120.503V110.909C120.503 110.395 120.369 109.994 120.102 109.707C119.835 109.418 119.469 109.273 119.003 109.273C118.682 109.273 118.395 109.342 118.142 109.482C117.892 109.621 117.695 109.824 117.55 110.091C117.405 110.358 117.332 110.682 117.332 111.062ZM125.988 117.591C125.502 117.591 125.085 117.528 124.735 117.403C124.386 117.281 124.095 117.119 123.862 116.918C123.632 116.719 123.449 116.506 123.312 116.278L124.113 115.716C124.204 115.835 124.319 115.972 124.458 116.125C124.598 116.281 124.788 116.416 125.029 116.53C125.274 116.646 125.593 116.705 125.988 116.705C126.517 116.705 126.953 116.577 127.297 116.321C127.64 116.065 127.812 115.665 127.812 115.119V113.79H127.727C127.653 113.909 127.548 114.057 127.412 114.233C127.278 114.406 127.085 114.561 126.832 114.697C126.582 114.831 126.244 114.898 125.818 114.898C125.289 114.898 124.815 114.773 124.395 114.523C123.977 114.273 123.646 113.909 123.402 113.432C123.16 112.955 123.039 112.375 123.039 111.693C123.039 111.023 123.157 110.439 123.393 109.942C123.629 109.442 123.957 109.055 124.377 108.783C124.798 108.507 125.284 108.369 125.835 108.369C126.261 108.369 126.599 108.44 126.849 108.582C127.102 108.722 127.295 108.881 127.429 109.06C127.565 109.236 127.67 109.381 127.744 109.494H127.846V108.455H128.818V115.188C128.818 115.75 128.69 116.207 128.434 116.56C128.181 116.915 127.841 117.175 127.412 117.339C126.985 117.507 126.511 117.591 125.988 117.591ZM125.954 113.994C126.358 113.994 126.699 113.902 126.977 113.717C127.255 113.533 127.467 113.267 127.612 112.92C127.757 112.574 127.829 112.159 127.829 111.676C127.829 111.205 127.758 110.788 127.616 110.428C127.474 110.067 127.264 109.784 126.985 109.58C126.707 109.375 126.363 109.273 125.954 109.273C125.528 109.273 125.173 109.381 124.889 109.597C124.608 109.812 124.396 110.102 124.254 110.466C124.115 110.83 124.045 111.233 124.045 111.676C124.045 112.131 124.116 112.533 124.258 112.882C124.403 113.229 124.616 113.501 124.897 113.7C125.181 113.896 125.534 113.994 125.954 113.994ZM134.17 115V106.273H137.119C137.804 106.273 138.363 106.396 138.798 106.643C139.235 106.888 139.559 107.219 139.77 107.636C139.98 108.054 140.085 108.52 140.085 109.034C140.085 109.548 139.98 110.016 139.77 110.436C139.562 110.857 139.241 111.192 138.806 111.442C138.372 111.689 137.815 111.812 137.136 111.812H135.022V110.875H137.102C137.571 110.875 137.947 110.794 138.231 110.632C138.515 110.47 138.721 110.251 138.849 109.976C138.98 109.697 139.045 109.384 139.045 109.034C139.045 108.685 138.98 108.372 138.849 108.097C138.721 107.821 138.514 107.605 138.227 107.449C137.94 107.29 137.559 107.21 137.085 107.21H135.227V115H134.17ZM142.844 106.273V115H141.787V106.273H142.844ZM151.884 106.273V115H150.861L146.105 108.148H146.02V115H144.963V106.273H145.986L150.759 113.142H150.844V106.273H151.884ZM154.595 115.068C154.385 115.068 154.204 114.993 154.054 114.842C153.903 114.692 153.828 114.511 153.828 114.301C153.828 114.091 153.903 113.911 154.054 113.76C154.204 113.609 154.385 113.534 154.595 113.534C154.805 113.534 154.985 113.609 155.136 113.76C155.287 113.911 155.362 114.091 155.362 114.301C155.362 114.44 155.326 114.568 155.255 114.685C155.187 114.801 155.095 114.895 154.978 114.966C154.865 115.034 154.737 115.068 154.595 115.068ZM160.525 115V114.233L163.405 111.08C163.743 110.71 164.022 110.389 164.24 110.116C164.459 109.841 164.621 109.582 164.726 109.341C164.834 109.097 164.888 108.841 164.888 108.574C164.888 108.267 164.814 108.001 164.667 107.777C164.522 107.553 164.323 107.379 164.07 107.257C163.817 107.135 163.533 107.074 163.218 107.074C162.882 107.074 162.59 107.143 162.34 107.283C162.093 107.419 161.901 107.611 161.765 107.858C161.631 108.105 161.564 108.395 161.564 108.727H160.559C160.559 108.216 160.676 107.767 160.912 107.381C161.148 106.994 161.469 106.693 161.875 106.477C162.284 106.261 162.743 106.153 163.252 106.153C163.763 106.153 164.216 106.261 164.611 106.477C165.006 106.693 165.316 106.984 165.54 107.351C165.765 107.717 165.877 108.125 165.877 108.574C165.877 108.895 165.819 109.209 165.702 109.516C165.588 109.82 165.39 110.159 165.105 110.534C164.824 110.906 164.434 111.361 163.934 111.898L161.973 113.994V114.062H166.03V115H160.525ZM173.108 115.153C172.694 115.153 172.317 115.075 171.979 114.919C171.641 114.76 171.373 114.531 171.174 114.233C170.975 113.932 170.875 113.568 170.875 113.142C170.875 112.767 170.949 112.463 171.097 112.23C171.245 111.994 171.442 111.81 171.689 111.676C171.936 111.543 172.209 111.443 172.507 111.378C172.809 111.31 173.111 111.256 173.415 111.216C173.813 111.165 174.135 111.126 174.382 111.101C174.632 111.072 174.814 111.026 174.928 110.96C175.044 110.895 175.103 110.781 175.103 110.619V110.585C175.103 110.165 174.988 109.838 174.757 109.605C174.53 109.372 174.185 109.256 173.722 109.256C173.242 109.256 172.865 109.361 172.593 109.571C172.32 109.781 172.128 110.006 172.017 110.244L171.063 109.903C171.233 109.506 171.461 109.196 171.745 108.974C172.032 108.75 172.344 108.594 172.682 108.506C173.023 108.415 173.358 108.369 173.688 108.369C173.898 108.369 174.14 108.395 174.412 108.446C174.688 108.494 174.953 108.595 175.209 108.749C175.468 108.902 175.682 109.134 175.853 109.443C176.023 109.753 176.108 110.168 176.108 110.688V115H175.103V114.114H175.051C174.983 114.256 174.87 114.408 174.711 114.57C174.551 114.732 174.34 114.869 174.076 114.983C173.811 115.097 173.489 115.153 173.108 115.153ZM173.262 114.25C173.659 114.25 173.995 114.172 174.267 114.016C174.543 113.859 174.75 113.658 174.89 113.411C175.032 113.163 175.103 112.903 175.103 112.631V111.71C175.06 111.761 174.966 111.808 174.821 111.851C174.679 111.891 174.515 111.926 174.327 111.957C174.142 111.986 173.962 112.011 173.786 112.034C173.613 112.054 173.472 112.071 173.364 112.085C173.103 112.119 172.858 112.175 172.631 112.251C172.407 112.325 172.225 112.437 172.086 112.588C171.949 112.736 171.881 112.937 171.881 113.193C171.881 113.543 172.01 113.807 172.269 113.986C172.53 114.162 172.861 114.25 173.262 114.25ZM180.79 108.455V109.307H177.398V108.455H180.79ZM178.387 106.886H179.393V113.125C179.393 113.409 179.434 113.622 179.516 113.764C179.602 113.903 179.71 113.997 179.84 114.045C179.974 114.091 180.114 114.114 180.262 114.114C180.373 114.114 180.464 114.108 180.535 114.097C180.606 114.082 180.663 114.071 180.705 114.062L180.91 114.966C180.842 114.991 180.746 115.017 180.624 115.043C180.502 115.071 180.347 115.085 180.16 115.085C179.876 115.085 179.597 115.024 179.325 114.902C179.055 114.78 178.83 114.594 178.651 114.344C178.475 114.094 178.387 113.778 178.387 113.398V106.886ZM185.15 108.455V109.307H181.758V108.455H185.15ZM182.746 106.886H183.752V113.125C183.752 113.409 183.793 113.622 183.876 113.764C183.961 113.903 184.069 113.997 184.2 114.045C184.333 114.091 184.474 114.114 184.621 114.114C184.732 114.114 184.823 114.108 184.894 114.097C184.965 114.082 185.022 114.071 185.065 114.062L185.269 114.966C185.201 114.991 185.106 115.017 184.984 115.043C184.862 115.071 184.707 115.085 184.519 115.085C184.235 115.085 183.957 115.024 183.684 114.902C183.414 114.78 183.19 114.594 183.011 114.344C182.835 114.094 182.746 113.778 182.746 113.398V106.886ZM189.337 115.136C188.706 115.136 188.162 114.997 187.705 114.719C187.25 114.438 186.899 114.045 186.652 113.543C186.408 113.037 186.286 112.449 186.286 111.778C186.286 111.108 186.408 110.517 186.652 110.006C186.899 109.491 187.243 109.091 187.683 108.804C188.126 108.514 188.643 108.369 189.234 108.369C189.575 108.369 189.912 108.426 190.244 108.54C190.577 108.653 190.879 108.838 191.152 109.094C191.425 109.347 191.642 109.682 191.804 110.099C191.966 110.517 192.047 111.031 192.047 111.642V112.068H187.001V111.199H191.024C191.024 110.83 190.95 110.5 190.803 110.21C190.658 109.92 190.45 109.692 190.18 109.524C189.913 109.357 189.598 109.273 189.234 109.273C188.834 109.273 188.487 109.372 188.195 109.571C187.905 109.767 187.682 110.023 187.526 110.338C187.369 110.653 187.291 110.991 187.291 111.352V111.932C187.291 112.426 187.376 112.845 187.547 113.189C187.72 113.53 187.96 113.79 188.267 113.969C188.574 114.145 188.93 114.233 189.337 114.233C189.601 114.233 189.839 114.196 190.053 114.122C190.268 114.045 190.455 113.932 190.611 113.781C190.767 113.628 190.888 113.437 190.973 113.21L191.945 113.483C191.842 113.812 191.67 114.102 191.429 114.352C191.188 114.599 190.889 114.793 190.534 114.932C190.179 115.068 189.78 115.136 189.337 115.136ZM193.577 115V108.455H194.548V109.477H194.634C194.77 109.128 194.99 108.857 195.294 108.663C195.598 108.467 195.963 108.369 196.389 108.369C196.821 108.369 197.18 108.467 197.467 108.663C197.757 108.857 197.983 109.128 198.145 109.477H198.213C198.381 109.139 198.632 108.871 198.967 108.672C199.303 108.47 199.705 108.369 200.173 108.369C200.759 108.369 201.237 108.553 201.609 108.919C201.982 109.283 202.168 109.849 202.168 110.619V115H201.162V110.619C201.162 110.136 201.03 109.791 200.766 109.584C200.501 109.376 200.19 109.273 199.832 109.273C199.372 109.273 199.016 109.412 198.763 109.69C198.51 109.966 198.384 110.315 198.384 110.739V115H197.361V110.517C197.361 110.145 197.24 109.845 196.999 109.618C196.757 109.388 196.446 109.273 196.065 109.273C195.804 109.273 195.56 109.342 195.332 109.482C195.108 109.621 194.926 109.814 194.787 110.061C194.651 110.305 194.582 110.588 194.582 110.909V115H193.577ZM204.006 117.455V108.455H204.978V109.494H205.097C205.171 109.381 205.273 109.236 205.404 109.06C205.538 108.881 205.728 108.722 205.975 108.582C206.225 108.44 206.563 108.369 206.989 108.369C207.54 108.369 208.026 108.507 208.447 108.783C208.867 109.058 209.195 109.449 209.431 109.955C209.667 110.46 209.785 111.057 209.785 111.744C209.785 112.438 209.667 113.038 209.431 113.547C209.195 114.053 208.869 114.445 208.451 114.723C208.033 114.999 207.552 115.136 207.006 115.136C206.586 115.136 206.249 115.067 205.996 114.928C205.744 114.786 205.549 114.625 205.413 114.446C205.276 114.264 205.171 114.114 205.097 113.994H205.012V117.455H204.006ZM204.995 111.727C204.995 112.222 205.067 112.658 205.212 113.036C205.357 113.411 205.569 113.705 205.847 113.918C206.126 114.128 206.467 114.233 206.87 114.233C207.29 114.233 207.641 114.122 207.923 113.901C208.207 113.676 208.42 113.375 208.562 112.997C208.707 112.616 208.779 112.193 208.779 111.727C208.779 111.267 208.708 110.852 208.566 110.483C208.427 110.111 208.215 109.817 207.931 109.601C207.65 109.382 207.296 109.273 206.87 109.273C206.461 109.273 206.117 109.376 205.839 109.584C205.56 109.788 205.35 110.075 205.208 110.445C205.066 110.811 204.995 111.239 204.995 111.727ZM214.165 108.455V109.307H210.773V108.455H214.165ZM211.762 106.886H212.768V113.125C212.768 113.409 212.809 113.622 212.891 113.764C212.977 113.903 213.085 113.997 213.215 114.045C213.349 114.091 213.489 114.114 213.637 114.114C213.748 114.114 213.839 114.108 213.91 114.097C213.981 114.082 214.038 114.071 214.08 114.062L214.285 114.966C214.217 114.991 214.121 115.017 213.999 115.043C213.877 115.071 213.722 115.085 213.535 115.085C213.251 115.085 212.972 115.024 212.7 114.902C212.43 114.78 212.205 114.594 212.026 114.344C211.85 114.094 211.762 113.778 211.762 113.398V106.886ZM220.197 109.92L219.294 110.176C219.237 110.026 219.153 109.879 219.043 109.737C218.935 109.592 218.787 109.473 218.599 109.379C218.412 109.286 218.172 109.239 217.879 109.239C217.479 109.239 217.145 109.331 216.878 109.516C216.614 109.697 216.482 109.929 216.482 110.21C216.482 110.46 216.572 110.658 216.754 110.803C216.936 110.947 217.22 111.068 217.607 111.165L218.578 111.403C219.163 111.545 219.599 111.763 219.886 112.055C220.173 112.345 220.317 112.719 220.317 113.176C220.317 113.551 220.209 113.886 219.993 114.182C219.78 114.477 219.482 114.71 219.098 114.881C218.714 115.051 218.268 115.136 217.76 115.136C217.092 115.136 216.54 114.991 216.102 114.702C215.665 114.412 215.388 113.989 215.271 113.432L216.226 113.193C216.317 113.545 216.489 113.81 216.741 113.986C216.997 114.162 217.331 114.25 217.743 114.25C218.212 114.25 218.584 114.151 218.859 113.952C219.138 113.75 219.277 113.509 219.277 113.227C219.277 113 219.197 112.81 219.038 112.656C218.879 112.5 218.635 112.384 218.305 112.307L217.214 112.051C216.615 111.909 216.175 111.689 215.893 111.391C215.615 111.089 215.476 110.713 215.476 110.261C215.476 109.892 215.58 109.565 215.787 109.281C215.997 108.997 216.283 108.774 216.643 108.612C217.007 108.45 217.419 108.369 217.879 108.369C218.527 108.369 219.036 108.511 219.405 108.795C219.777 109.08 220.041 109.455 220.197 109.92ZM226.211 106.273V115H225.206V106.273H226.211ZM230.798 115.136C230.167 115.136 229.623 114.997 229.165 114.719C228.711 114.438 228.36 114.045 228.113 113.543C227.869 113.037 227.746 112.449 227.746 111.778C227.746 111.108 227.869 110.517 228.113 110.006C228.36 109.491 228.704 109.091 229.144 108.804C229.587 108.514 230.104 108.369 230.695 108.369C231.036 108.369 231.373 108.426 231.705 108.54C232.038 108.653 232.34 108.838 232.613 109.094C232.886 109.347 233.103 109.682 233.265 110.099C233.427 110.517 233.508 111.031 233.508 111.642V112.068H228.462V111.199H232.485C232.485 110.83 232.411 110.5 232.263 110.21C232.119 109.92 231.911 109.692 231.641 109.524C231.374 109.357 231.059 109.273 230.695 109.273C230.295 109.273 229.948 109.372 229.656 109.571C229.366 109.767 229.143 110.023 228.987 110.338C228.83 110.653 228.752 110.991 228.752 111.352V111.932C228.752 112.426 228.837 112.845 229.008 113.189C229.181 113.53 229.421 113.79 229.728 113.969C230.035 114.145 230.391 114.233 230.798 114.233C231.062 114.233 231.3 114.196 231.513 114.122C231.729 114.045 231.915 113.932 232.072 113.781C232.228 113.628 232.349 113.437 232.434 113.21L233.406 113.483C233.303 113.812 233.131 114.102 232.89 114.352C232.648 114.599 232.35 114.793 231.995 114.932C231.64 115.068 231.241 115.136 230.798 115.136ZM237.952 108.455V109.307H234.424V108.455H237.952ZM235.481 115V107.551C235.481 107.176 235.569 106.864 235.745 106.614C235.921 106.364 236.15 106.176 236.431 106.051C236.712 105.926 237.009 105.864 237.322 105.864C237.569 105.864 237.771 105.884 237.927 105.923C238.083 105.963 238.2 106 238.276 106.034L237.987 106.903C237.935 106.886 237.864 106.865 237.773 106.839C237.685 106.814 237.569 106.801 237.424 106.801C237.092 106.801 236.852 106.885 236.704 107.053C236.559 107.22 236.487 107.466 236.487 107.79V115H235.481ZM242.208 108.455V109.307H238.816V108.455H242.208ZM239.805 106.886H240.811V113.125C240.811 113.409 240.852 113.622 240.934 113.764C241.02 113.903 241.127 113.997 241.258 114.045C241.392 114.091 241.532 114.114 241.68 114.114C241.791 114.114 241.882 114.108 241.953 114.097C242.024 114.082 242.081 114.071 242.123 114.062L242.328 114.966C242.26 114.991 242.164 115.017 242.042 115.043C241.92 115.071 241.765 115.085 241.578 115.085C241.294 115.085 241.015 115.024 240.743 114.902C240.473 114.78 240.248 114.594 240.069 114.344C239.893 114.094 239.805 113.778 239.805 113.398V106.886Z" fill="#FB3748"/>
</g>
<defs>
<clipPath id="clip0_5_1223">
<rect width="480" height="500" fill="white"/>
</clipPath>
</defs>
</svg>
